<svg xmlns="http://www.w3.org/2000/svg" viewBox="0 0 12.62 14.5"><polygon points="9.53 10.11 3.09 10.11 3.74 8.35 8.88 8.35 9.53 10.11" fill="#f86d32"/><path d="M13.43,15h0a.88.88,0,0,1-.83-.58l-.43-1.18-.95-2.63-.65-1.76L8,1.76,7.54.5H8.8a.88.88,0,0,1,.83.58l2.83,7.77.63,1.76,1,2.63.21.58A.88.88,0,0,1,13.43,15Z" transform="translate(-1.69 -0.5)" fill="#312e81"/><path d="M8.46.5,8,1.76,5.43,8.85l-.65,1.76-1,2.63L3.4,14.42a.88.88,0,0,1-.83.58h0a.88.88,0,0,1-.83-1.18L2,13.24l1-2.63.63-1.76L6.37,1.08A.88.88,0,0,1,7.2.5Z" transform="translate(-1.69 -0.5)" fill="#f86d32"/></svg>