<svg id="Layer_1" data-name="Layer 1" xmlns="http://www.w3.org/2000/svg" viewBox="0 0 25.72 28.04"><defs><style>.cls-1{fill:#41b883;}</style></defs><path class="cls-1" d="M10.39,20H3.28a4.63,4.63,0,0,1,.49-2.26,5.33,5.33,0,0,1,4.72-3.17c.6,0,1.21,0,1.87,0,0-.24,0-.45,0-.66V7.75a5.39,5.39,0,0,1,4.66-5.62c.24,0,.48,0,.78-.06v26.4a1.42,1.42,0,0,1-1.61,1.63H11.91a1.4,1.4,0,0,1-1.52-1.54c0-1.64,0-6.28,0-7.92Z" transform="translate(-3.28 -2.06)"/><path class="cls-1" d="M16.54,14.55H20a3.51,3.51,0,0,0,.45-7c-1.09-.09-2.19-.06-3.29,0-.43,0-.61-.08-.6-.56,0-1.46,0-2.92,0-4.38,0-.39.11-.52.5-.5a41.08,41.08,0,0,1,4.31.17,8.51,8.51,0,0,1,7,5.5,8.83,8.83,0,0,1-5.57,11.81,13.88,13.88,0,0,1-3.1.44A24.32,24.32,0,0,1,17,20c-.14,0-.4-.17-.4-.26C16.53,18,16.54,16.32,16.54,14.55Z" transform="translate(-3.28 -2.06)"/><path class="cls-1" d="M9.67,20.72v3.85l-.14,0a2.29,2.29,0,0,1-.11-.52c0-.88,0-1.76,0-2.65,0-.36-.1-.49-.47-.48-.89,0-1.77,0-2.66,0a3.58,3.58,0,0,1-.53-.11l0-.13Z" transform="translate(-3.28 -2.06)"/><path class="cls-1" d="M4.72,21.8c1.2,0,2.41,0,3.62,0a.35.35,0,0,1,.24.22c0,1.23,0,2.46,0,3.7l-.18,0a3.69,3.69,0,0,1-.11-.56c0-.9,0-1.79,0-2.69,0-.32-.1-.43-.42-.43-.9,0-1.8,0-2.7,0A3,3,0,0,1,4.68,22Z" transform="translate(-3.28 -2.06)"/></svg>