<svg id="Layer_1" data-name="Layer 1" xmlns="http://www.w3.org/2000/svg" viewBox="0 0 219.31 51.59"><defs><style>.cls-1{fill:#fff;}.cls-2{fill:#f86d32;}</style></defs><path class="cls-1" d="M21.48,32.71l1.6,2.51L12.47,41.63,23.08,48l-1.7,2.49L9.48,43.12v-3Z" transform="translate(-9.48 -7.89)"/><path class="cls-2" d="M40.49,32.71l12,7.41v3l-11.9,7.41-1.7-2.45L49.5,41.63,38.88,35.27Z" transform="translate(-9.48 -7.89)"/><path class="cls-1" d="M25.84,53.42l-1.39-.62,11.68-24,1.37.69Z" transform="translate(-9.48 -7.89)"/><path class="cls-2" d="M73.16,7.89h3.69l11.6,30.88H83l-8-23-8,23H61.56ZM67,28H83.27V32.9H67Z" transform="translate(-9.48 -7.89)"/><path class="cls-1" d="M92.27,7.89h5.08V38.77H92.27Zm7,30.21a5.79,5.79,0,0,1-2.17-2.8l.3-4.82a4.67,4.67,0,0,0,.44,2.14A3.19,3.19,0,0,0,99.09,34a4.21,4.21,0,0,0,2.06.46,3.67,3.67,0,0,0,2.93-1.19,5,5,0,0,0,1-3.37V25.73a5.22,5.22,0,0,0-1-3.46,3.66,3.66,0,0,0-2.93-1.22,4.32,4.32,0,0,0-2.06.46,3,3,0,0,0-1.3,1.35A4.7,4.7,0,0,0,97.35,25l-.45-4.56a7.45,7.45,0,0,1,2.47-3,5.94,5.94,0,0,1,3.41-1.05,7.24,7.24,0,0,1,4,1.08,6.81,6.81,0,0,1,2.53,3.18,13.14,13.14,0,0,1,.88,5v4.17a12.63,12.63,0,0,1-.89,5A6.65,6.65,0,0,1,106.73,38a7.38,7.38,0,0,1-4,1.08A6.09,6.09,0,0,1,99.22,38.1Z" transform="translate(-9.48 -7.89)"/><path class="cls-1" d="M118.74,38a6.88,6.88,0,0,1-2.57-3.16,12.89,12.89,0,0,1-.88-5V25.66a13,13,0,0,1,.87-5,6.81,6.81,0,0,1,2.54-3.19,7.13,7.13,0,0,1,4-1.09,6,6,0,0,1,3.41,1,7.41,7.41,0,0,1,2.48,2.93L128.14,25a4.75,4.75,0,0,0-.45-2.16,3,3,0,0,0-1.29-1.36,4.24,4.24,0,0,0-2.06-.47,3.62,3.62,0,0,0-2.93,1.23,5.16,5.16,0,0,0-1,3.44v4.17a5,5,0,0,0,1,3.38,3.66,3.66,0,0,0,2.93,1.2A4.24,4.24,0,0,0,126.4,34a3.11,3.11,0,0,0,1.29-1.37,4.74,4.74,0,0,0,.45-2.15l.3,4.84a6,6,0,0,1-2.11,2.77,5.83,5.83,0,0,1-3.52,1.06A7.32,7.32,0,0,1,118.74,38Zm9.4-30.14h5.08V38.77h-5.08Z" transform="translate(-9.48 -7.89)"/><path class="cls-1" d="M140.2,37.4a6.54,6.54,0,0,1-1.89-5.13,6.12,6.12,0,0,1,1.91-4.91q1.92-1.63,5.74-1.63h5.9l.3,3.95H146a3.46,3.46,0,0,0-2.26.63,2.44,2.44,0,0,0-.76,2,2.32,2.32,0,0,0,1,2,5.32,5.32,0,0,0,2.95.67,9,9,0,0,0,3.6-.54,1.73,1.73,0,0,0,1.18-1.65l.45,3.14a3.69,3.69,0,0,1-1.27,1.74,6,6,0,0,1-2.17,1,10.23,10.23,0,0,1-2.78.35Q142.09,39.08,140.2,37.4Zm11.47-12.61a3.73,3.73,0,0,0-1.09-2.87,4.36,4.36,0,0,0-3.09-1,8,8,0,0,0-2.51.41,7.79,7.79,0,0,0-2.21,1.12l-3.37-2.84a8.49,8.49,0,0,1,3.39-2.35,12.54,12.54,0,0,1,4.68-.84,10.84,10.84,0,0,1,4.8,1,6.91,6.91,0,0,1,3,2.8,8.8,8.8,0,0,1,1.05,4.43V38.77h-4.7Z" transform="translate(-9.48 -7.89)"/><path class="cls-1" d="M167.6,32.29a1.75,1.75,0,0,0,.4,1.24,1.49,1.49,0,0,0,1.15.44h1.51v4.86H167.9a5.12,5.12,0,0,1-4-1.53A6.09,6.09,0,0,1,162.52,33V7.89h5.08Z" transform="translate(-9.48 -7.89)"/><path class="cls-1" d="M180.19,32.29a1.75,1.75,0,0,0,.41,1.24,1.48,1.48,0,0,0,1.14.44h1.51v4.86h-2.76a5.12,5.12,0,0,1-4-1.53A6.13,6.13,0,0,1,175.12,33V7.89h5.07Z" transform="translate(-9.48 -7.89)"/><path class="cls-1" d="M188.33,37.4a6.54,6.54,0,0,1-1.89-5.13,6.09,6.09,0,0,1,1.91-4.91c1.27-1.09,3.19-1.63,5.73-1.63H200l.29,3.95H194.1a3.48,3.48,0,0,0-2.26.63,2.44,2.44,0,0,0-.75,2,2.3,2.3,0,0,0,1,2,5.29,5.29,0,0,0,3,.67,9.12,9.12,0,0,0,3.6-.54,1.74,1.74,0,0,0,1.18-1.65l.44,3.14A3.74,3.74,0,0,1,199,37.68a6.06,6.06,0,0,1-2.18,1,10.23,10.23,0,0,1-2.78.35Q190.23,39.08,188.33,37.4ZM199.8,24.79a3.74,3.74,0,0,0-1.1-2.87,4.36,4.36,0,0,0-3.09-1,7.94,7.94,0,0,0-2.5.41,7.66,7.66,0,0,0-2.21,1.12l-3.38-2.84a8.53,8.53,0,0,1,3.4-2.35,12.48,12.48,0,0,1,4.67-.84,10.84,10.84,0,0,1,4.8,1,6.86,6.86,0,0,1,3.05,2.8,8.8,8.8,0,0,1,1.05,4.43V38.77H199.8Z" transform="translate(-9.48 -7.89)"/><path class="cls-1" d="M210.65,7.89h5.07V38.77h-5.07Zm13.06,17.52a4.17,4.17,0,0,0-1.06-3.06,4.06,4.06,0,0,0-3-1.08,4,4,0,0,0-2.89,1,3.79,3.79,0,0,0-1,2.83l-.44-4.57a8,8,0,0,1,2.51-3.06,6.17,6.17,0,0,1,3.58-1.06,6.69,6.69,0,0,1,5.47,2.35,10.11,10.11,0,0,1,1.95,6.64V38.77h-5.08Z" transform="translate(-9.48 -7.89)"/><path class="cls-1" d="M64.52,59.3A6.73,6.73,0,0,1,63,58.78a6.17,6.17,0,0,1-1.31-.86l.75-1a5.37,5.37,0,0,0,1.73,1,6,6,0,0,0,2.06.35,4.17,4.17,0,0,0,2.49-.64,2.07,2.07,0,0,0,.88-1.79h0a1.6,1.6,0,0,0-.38-1.14,2.35,2.35,0,0,0-1-.65,11.58,11.58,0,0,0-1.56-.4h-.12l-.25-.05a14.54,14.54,0,0,1-2.11-.53,3,3,0,0,1-1.35-.92,2.67,2.67,0,0,1-.56-1.8h0a3.65,3.65,0,0,1,.52-2,3.34,3.34,0,0,1,1.52-1.26,6,6,0,0,1,2.41-.43,5.79,5.79,0,0,1,1.31.15,6.88,6.88,0,0,1,1.28.43,7.74,7.74,0,0,1,1.26.73l-.74,1a6.81,6.81,0,0,0-1.58-.85,4.66,4.66,0,0,0-1.53-.27,3.85,3.85,0,0,0-2.38.64,2.17,2.17,0,0,0-.84,1.82h0a1.47,1.47,0,0,0,.42,1.11A2.52,2.52,0,0,0,65,52a16.86,16.86,0,0,0,1.71.41l.08,0,.08,0,.1,0,.1,0a12.62,12.62,0,0,1,2,.55,3.15,3.15,0,0,1,1.31,1,2.83,2.83,0,0,1,.52,1.78v0a3.26,3.26,0,0,1-2.12,3.2,6.53,6.53,0,0,1-2.48.42A8.57,8.57,0,0,1,64.52,59.3Z" transform="translate(-9.48 -7.89)"/><path class="cls-1" d="M85.23,46.82h1.24V59.34H85.23Zm.83,5.74h7.47v1.19H86.06Zm6.8-5.74H94.1V59.34H92.86Z" transform="translate(-9.48 -7.89)"/><path class="cls-1" d="M112.5,46.82H114l4.61,12.52h-1.37l-4-11.22-4,11.22h-1.38ZM110,55.15h6.59V56.3H110Z" transform="translate(-9.48 -7.89)"/><path class="cls-1" d="M132.57,46.82h1.24V59.34h-1.24Zm.88,11.37h7.17v1.15h-7.17Z" transform="translate(-9.48 -7.89)"/><path class="cls-1" d="M152.51,46.82h8.84V48h-8.84Zm3.8.51h1.24v12h-1.24Z" transform="translate(-9.48 -7.89)"/><path class="cls-1" d="M176.55,58.93a3.53,3.53,0,0,1-1.5-1.58,5.45,5.45,0,0,1-.52-2.49V51.31a5.47,5.47,0,0,1,.52-2.5,3.58,3.58,0,0,1,1.5-1.58,5.51,5.51,0,0,1,4.76,0,3.66,3.66,0,0,1,1.51,1.58,5.6,5.6,0,0,1,.51,2.5v3.55a5.58,5.58,0,0,1-.51,2.49,3.61,3.61,0,0,1-1.51,1.58,5.51,5.51,0,0,1-4.76,0Zm4.09-1a2.67,2.67,0,0,0,1.08-1.17,4.09,4.09,0,0,0,.37-1.83V51.25a4.14,4.14,0,0,0-.37-1.84,2.59,2.59,0,0,0-1.08-1.16,3.86,3.86,0,0,0-3.42,0,2.59,2.59,0,0,0-1.08,1.16,4.14,4.14,0,0,0-.37,1.84v3.67a4.09,4.09,0,0,0,.37,1.83,2.67,2.67,0,0,0,1.08,1.17,3.86,3.86,0,0,0,3.42,0Z" transform="translate(-9.48 -7.89)"/><path class="cls-1" d="M199.67,59a3.22,3.22,0,0,1-1.46-1.52,5.75,5.75,0,0,1-.49-2.54V46.82H199V55a3.43,3.43,0,0,0,.79,2.47,3.14,3.14,0,0,0,2.36.82,3.19,3.19,0,0,0,2.38-.82,3.43,3.43,0,0,0,.79-2.47V46.82h1.24V54.9a5.9,5.9,0,0,1-.48,2.54A3.28,3.28,0,0,1,204.57,59a5.31,5.31,0,0,1-2.46.51A5.22,5.22,0,0,1,199.67,59Z" transform="translate(-9.48 -7.89)"/><path class="cls-1" d="M219.79,46.82h8.84V48h-8.84Zm3.8.51h1.24v12h-1.24Z" transform="translate(-9.48 -7.89)"/></svg>